<svg width="2190" height="283" xmlns="http://www.w3.org/2000/svg"><path fill="#334258" class="st0" d="M144.8 3.5h120.4v125.8H144.8z"/><path fill="#8C8CF9" class="st1" d="M144.8 141.2h120.4v128.3H144.8z"/><path fill="#334258" class="st0" d="M14.5 3.5h120.4v125.8H14.5zm0 137.7h120.4v128.3H14.5zm306.98 128.156H298V5.484h61.607a221.637 248.988 0 0121.27 1.084q14.611 1.587 26.505 5.492a69.124 77.654 0 0119.572 10.155 60.677 68.165 0 0112.668 12.912 55.516 62.367 0 019.795 20.173q3.289 10.961 4.114 24.708.311 2.524.311 7.139a62.798 70.547 0 01-4.672 27.357 59.97 67.37 0 01-5.676 11.817 66.36 74.548 0 01-22.74 23.296 81.817 91.914 0 01-6.125 3.52 92.727 104.17 0 01-27.47 8.593 117.387 131.873 0 01-14.531.981h-51.149v106.645zM362.476 28.99h-40.998v110.214h48.59a106.814 119.995 0 0016.541-1.337q8.45-1.49 15.185-4.647a42.877 48.168 0 0013.764-10.034 47.438 53.292 0 0013.344-28.784 68.422 76.866 0 001.149-14.395q-1.317-28.12-19.105-39.571a67.794 76.16 0 00-16.398-7.356q-7.726-2.3-16.91-3.306a156.455 175.762 0 00-15.162-.784zm1252.806 240.366L1716.258 5.484h26.038l100.897 263.872h-25.418l-34.564-88.452h-108.57l-33.94 88.452h-25.42zm159.327-112.653l-45.333-120.574-45.721 120.574h91.054zM737.296 37.61v231.746h-23.48V5.484h31.774l131.43 218.603V5.484h23.48v263.872h-23.48L737.296 37.609z"/><path fill="#8C8CF9" d="M2059.663 269.356h-76.177V5.484h63.854a198.906 223.452 0 0129.263 2.307 146.167 164.205 0 0129.091 8.184 129.684 145.688 0 0125.711 14.26 107.074 120.288 0 0116.64 14.863q17.01 18.628 25.418 42.876 8.408 24.244 8.408 51.93a120.155 134.983 0 01-4.148 34.742 105.106 118.077 0 01-6.196 18.885q-10.113 24.202-27.59 41.264-17.474 17.063-39.29 25.814a132.82 149.21 0 01-44.985 8.747zM2047.34 28.99h-40.375v216.078h36.192q48.898 0 80.516-25.814a80.659 90.613 0 0030.364-50.008 123.834 139.116 0 004.355-29.343q0-22.027-6.742-42.006a89.356 100.383 0 00-20.499-35.52 88.985 99.966 0 00-21.225-17.548 113.074 127.027 0 00-13.646-6.914q-21.118-8.925-48.94-8.925z" class="st1"/><path fill="#334258" d="M1161.375 139.208q.387-24.636 9.3-48.446a126.23 141.808 0 0125.419-43.225q16.506-19.413 39.093-30.731a117.873 132.419 0 0144.911-11.247 136.34 153.165 0 014.105-.071q33.944 0 62.73 18.371a121.736 136.759 0 0145.57 50.404 121.672 136.687 0 0116.778 70.604 114.258 128.357 0 01-7.612 44.688 108.271 121.632 0 01-3.704 9.464 119.587 134.345 0 01-29.139 42.655 133.626 150.116 0 01-40.8 27.382 128.595 144.465 0 01-45.683 9.532 124.92 140.335 0 01-44.017-10.794 128.9 144.807 0 01-39.096-28.338 119.631 134.395 0 01-27.666-43.92 118.067 132.637 0 01-9.83-44.985 140.371 157.694 0 01-.36-11.343zm23.48-1.48a135.658 152.399 0 002.297 25.654 98.149 110.26 0 007.583 26.583 99.875 112.2 0 0012.272 22.258 83.741 94.075 0 0011.985 13.697 101.615 114.155 0 0024.657 17.084 93.568 105.115 0 007.387 3.156 112.502 126.386 0 0020.727 5.46 94.641 106.32 0 0012.44.937 112.283 126.14 0 0027.358-4.361 129.919 145.952 0 006.43-2.125 103.83 116.644 0 0032.2-19.37q14.994-13.144 24.644-33.823a93.187 104.687 0 008.52-27.143 124.878 140.289 0 002.443-21.563 102.97 115.677 0 00-5.599-38.558 94.124 105.74 0 00-8.735-20.554q-14.338-26.12-37.703-40.351-23.365-14.235-48.86-14.235a92.978 104.452 0 00-38.515 9.186 106.922 120.117 0 00-32.2 24.94 105.11 118.08 0 00-20.422 31.975 99.93 112.261 0 00-1.238 2.98 87.979 98.836 0 00-6.5 23.315 75.926 85.296 0 00-1.172 14.859zm279.326 131.628h-23.479V5.484h63.157a206.385 231.854 0 0119.73.995q16.401 1.776 28.59 6.711a98.523 110.681 0 0112.747 6.262q6.479 3.862 11.415 8.483a50.028 56.202 0 014.818 5.15 70.955 79.712 0 018.44 12.49 55.434 62.275 0 015.393 13.102 110.07 123.654 0 014.289 21.238 127.462 143.192 0 01.749 7.577 77.935 87.553 0 01-8.952 41.397 69.937 78.567 0 01-24.796 30.385q-15.849 11.271-35.764 11.271l66.414 98.81h-29.527l-80.052-119.788h19.683a122.279 137.368 0 0017.413-1.326q9.545-1.544 17.69-4.885a74.774 84.001 0 001.67-.71 59.408 66.739 0 0013.423-8.159 47.65 53.531 0 0010.792-12.213 45.924 51.591 0 008.2-24.89 58.697 65.94 0 00.326-7.017 52.761 59.272 0 00-2.165-17.288 44.321 49.79 0 00-7.056-15.622 56.716 63.715 0 00-22.86-20.09 67.264 75.565 0 00-1.397-.67q-15.033-7.011-31.541-7.011h-47.35v239.67zm-997.95 0L567.208 5.484h26.038l100.897 263.872h-25.419l-34.563-88.452H525.59l-33.941 88.452H466.23zM625.56 156.703L580.225 36.129l-45.72 120.574h91.054z" class="st0"/><path fill="#8C8CF9" d="M1921.262 5.484v263.872h-23.48V5.484h23.48z" class="st1"/><path fill="#334258" d="M1015.36 269.356h-76.177V5.484h63.855a198.906 223.452 0 0129.262 2.307 146.167 164.205 0 0129.092 8.184 129.684 145.688 0 0125.71 14.26 107.074 120.288 0 0116.64 14.863q17.01 18.628 25.418 42.876 8.409 24.244 8.409 51.93a120.155 134.983 0 01-4.15 34.742 105.106 118.077 0 01-6.195 18.885q-10.113 24.202-27.59 41.264-17.474 17.063-39.29 25.814a132.82 149.21 0 01-44.984 8.747zM1003.038 28.99h-40.376v216.078h36.192q48.898 0 80.516-25.814a80.659 90.613 0 0030.364-50.008 123.834 139.116 0 004.355-29.343q0-22.027-6.742-42.006a89.356 100.383 0 00-20.499-35.52 88.985 99.966 0 00-21.225-17.548 113.074 127.027 0 00-13.646-6.914q-21.118-8.925-48.94-8.925z" class="st0"/></svg>