<svg width="2030" height="273" xmlns="http://www.w3.org/2000/svg"><path fill="#334258" class="st0" d="M144.8 3.5h120.4v125.8H144.8z"/><path fill="#8C8CF9" class="st1" d="M144.8 141.2h120.4v128.3H144.8z"/><path fill="#334258" class="st0" d="M14.5 3.5h120.4v125.8H14.5zm0 137.7h120.4v128.3H14.5zm304.923 128.156H298V5.484h56.212a202.224 248.988 0 0119.407 1.084q13.33 1.587 24.183 5.492a63.07 77.654 0 0117.857 10.155 55.363 68.165 0 0111.559 12.912 50.654 62.367 0 018.938 20.173q3 10.961 3.753 24.708.284 2.524.284 7.139a57.298 70.547 0 01-4.263 27.357 54.717 67.37 0 01-5.179 11.817 60.547 74.548 0 01-20.748 23.296 74.651 91.914 0 01-5.59 3.52 84.606 104.17 0 01-25.063 8.593 107.106 131.873 0 01-13.258.981h-46.67v106.645zM356.83 28.99h-37.407v110.214h44.334a97.459 119.995 0 0015.092-1.337q7.71-1.49 13.855-4.647a39.121 48.168 0 0012.558-10.034 43.283 53.292 0 0012.176-28.784 62.43 76.866 0 001.048-14.395q-1.202-28.12-17.432-39.571a61.856 76.16 0 00-14.962-7.356q-7.049-2.3-15.427-3.306a142.752 175.762 0 00-13.835-.784zm1143.077 240.366l92.132-263.872h23.758l92.06 263.872h-23.193l-31.536-88.452h-99.06l-30.969 88.452h-23.192zm145.373-112.653l-41.363-120.574-41.717 120.574h83.08zM698.82 37.61v231.746h-21.423V5.484h28.99l119.919 218.603V5.484h21.423v263.872h-21.423L698.82 37.609z"/><path fill="#8C8CF9" d="M1905.366 269.356h-69.505V5.484h58.262a181.485 223.452 0 0126.7 2.307 133.365 164.205 0 0126.543 8.184 118.326 145.688 0 0123.46 14.26 97.696 120.288 0 0115.181 14.863q15.52 18.628 23.192 42.876 7.672 24.244 7.672 51.93a109.631 134.983 0 01-3.785 34.742 95.9 118.077 0 01-5.653 18.885q-9.227 24.202-25.174 41.264-15.943 17.063-35.848 25.814a121.187 149.21 0 01-41.045 8.747zM1894.123 28.99h-36.839v216.078h33.022q44.616 0 73.464-25.814a73.594 90.613 0 0027.705-50.008 112.988 139.116 0 003.974-29.343q0-22.027-6.152-42.006a81.53 100.383 0 00-18.703-35.52 81.191 99.966 0 00-19.367-17.548 103.17 127.027 0 00-12.45-6.914q-19.269-8.925-44.654-8.925z" class="st1"/><path fill="#334258" d="M1085.756 139.208q.353-24.636 8.485-48.446a115.175 141.808 0 0123.193-43.225q15.06-19.413 35.669-30.731a107.549 132.419 0 0140.978-11.247 124.399 153.165 0 013.745-.071q30.971 0 57.236 18.371a111.074 136.759 0 0141.578 50.404 111.016 136.687 0 0115.309 70.604 104.25 128.357 0 01-6.945 44.688 98.788 121.632 0 01-3.38 9.464 109.113 134.345 0 01-26.587 42.655 121.923 150.116 0 01-37.227 27.382 117.332 144.465 0 01-41.682 9.532 113.978 140.335 0 01-40.16-10.794 117.61 144.807 0 01-35.673-28.338 109.153 134.395 0 01-25.243-43.92 107.726 132.637 0 01-8.969-44.985 128.077 157.694 0 01-.327-11.343zm21.423-1.48a123.776 152.399 0 002.096 25.654 89.552 110.26 0 006.92 26.583 91.128 112.2 0 0011.196 22.258 76.407 94.075 0 0010.936 13.697 92.715 114.155 0 0022.497 17.084 85.373 105.115 0 006.74 3.156 102.649 126.386 0 0018.911 5.46 86.352 106.32 0 0011.35.937 102.449 126.14 0 0024.963-4.361 118.54 145.952 0 005.867-2.125 94.736 116.644 0 0029.379-19.37q13.681-13.144 22.486-33.823a85.025 104.687 0 007.773-27.143 113.94 140.289 0 002.23-21.563 93.951 115.677 0 00-5.109-38.558 85.88 105.74 0 00-7.97-20.554q-13.082-26.12-34.4-40.351-21.32-14.235-44.581-14.235a84.834 104.452 0 00-35.142 9.186 97.557 120.117 0 00-29.379 24.94 95.903 118.08 0 00-18.634 31.975 91.177 112.261 0 00-1.13 2.98 80.273 98.836 0 00-5.93 23.315 69.276 85.296 0 00-1.07 14.859zm254.861 131.628h-21.422V5.484h57.625a188.308 231.854 0 0118.002.995q14.965 1.776 26.086 6.711a89.894 110.681 0 0111.631 6.262q5.911 3.862 10.415 8.483a45.646 56.202 0 014.396 5.15 64.74 79.712 0 017.7 12.49 50.579 62.275 0 014.921 13.102 100.43 123.654 0 013.913 21.238 116.298 143.192 0 01.684 7.577 71.11 87.553 0 01-8.168 41.397 63.811 78.567 0 01-22.624 30.385q-14.46 11.271-32.631 11.271l60.596 98.81h-26.94l-73.041-119.788h17.959a111.569 137.368 0 0015.888-1.326q8.709-1.544 16.14-4.885a68.225 84.001 0 001.524-.71 54.205 66.739 0 0012.248-8.159 43.477 53.531 0 009.847-12.213 41.902 51.591 0 007.48-24.89 53.556 65.94 0 00.299-7.017 48.14 59.272 0 00-1.975-17.288 40.44 49.79 0 00-6.439-15.622 51.749 63.715 0 00-20.858-20.09 61.373 75.565 0 00-1.274-.67q-13.716-7.011-28.78-7.011h-43.201v239.67zm-910.544 0L543.63 5.484h23.757l92.06 263.872h-23.192l-31.536-88.452h-99.06l-30.97 88.452h-23.192zM596.87 156.703L555.506 36.129 513.79 156.703h83.08z" class="st0"/><path fill="#8C8CF9" d="M1779.088 5.484v263.872h-21.423V5.484h21.423z" class="st1"/><path fill="#334258" d="M952.53 269.356h-69.506V5.484h58.263a181.485 223.452 0 0126.7 2.307 133.365 164.205 0 0126.543 8.184 118.326 145.688 0 0123.458 14.26 97.696 120.288 0 0115.182 14.863q15.52 18.628 23.193 42.876 7.671 24.244 7.671 51.93a109.631 134.983 0 01-3.785 34.742 95.9 118.077 0 01-5.653 18.885q-9.227 24.202-25.174 41.264-15.943 17.063-35.848 25.814a121.187 149.21 0 01-41.045 8.747zM941.286 28.99h-36.84v216.078h33.022q44.616 0 73.464-25.814a73.594 90.613 0 0027.705-50.008 112.988 139.116 0 003.974-29.343q0-22.027-6.152-42.006a81.53 100.383 0 00-18.703-35.52A81.191 99.966 0 00998.39 44.83a103.17 127.027 0 00-12.45-6.914q-19.269-8.925-44.653-8.925z" class="st0"/></svg>